<?xml version="1.0" encoding="UTF-8" standalone="no"?>
<!-- Created with Inkscape (http://www.inkscape.org/) -->

<svg
   xmlns:dc="http://purl.org/dc/elements/1.1/"
   xmlns:cc="http://creativecommons.org/ns#"
   xmlns:rdf="http://www.w3.org/1999/02/22-rdf-syntax-ns#"
   xmlns:svg="http://www.w3.org/2000/svg"
   xmlns="http://www.w3.org/2000/svg"
   xmlns:sodipodi="http://sodipodi.sourceforge.net/DTD/sodipodi-0.dtd"
   xmlns:inkscape="http://www.inkscape.org/namespaces/inkscape"
   width="1024"
   height="1024"
   viewBox="0 0 270.93333 270.93334"
   version="1.1"
   id="svg8"
   inkscape:version="0.92.2 5c3e80d, 2017-08-06"
   sodipodi:docname="qf.svg"
   inkscape:export-filename="/Users/user/q2.png"
   inkscape:export-xdpi="96"
   inkscape:export-ydpi="96">
  <defs
     id="defs2" />
  <sodipodi:namedview
     id="base"
     pagecolor="#ffffff"
     bordercolor="#666666"
     borderopacity="1.0"
     inkscape:pageopacity="0.0"
     inkscape:pageshadow="2"
     inkscape:zoom="0.7734375"
     inkscape:cx="498.51885"
     inkscape:cy="512"
     inkscape:document-units="px"
     inkscape:current-layer="layer2"
     showgrid="false"
     units="px"
     inkscape:window-width="1653"
     inkscape:window-height="1005"
     inkscape:window-x="0"
     inkscape:window-y="1"
     inkscape:window-maximized="1" />
  <metadata
     id="metadata5">
    <rdf:RDF>
      <cc:Work
         rdf:about="">
        <dc:format>image/svg+xml</dc:format>
        <dc:type
           rdf:resource="http://purl.org/dc/dcmitype/StillImage" />
        <dc:title />
      </cc:Work>
    </rdf:RDF>
  </metadata>
  <g
     inkscape:label="Layer 1"
     inkscape:groupmode="layer"
     id="layer1"
     transform="translate(0,-26.06665)"
     style="display:none">
    <path
       style="opacity:1;fill:none;fill-opacity:1;fill-rule:nonzero;stroke:#000000;stroke-width:0.4357515;stroke-linecap:round;stroke-linejoin:round;stroke-miterlimit:4;stroke-dasharray:none;stroke-opacity:1"
       d="m 214.6238,161.53331 c 0,21.85864 -8.85996,41.64792 -23.18459,55.97254 -14.32462,14.32463 -34.1139,23.18459 -55.97254,23.18459 -21.85864,0 -41.647918,-8.85996 -55.97254,-23.18459 -14.324621,-14.32462 -23.184584,-34.1139 -23.184583,-55.97254 10e-7,-21.85864 8.859963,-41.64792 23.184585,-55.97254 14.324621,-14.324622 34.113898,-23.184586 55.972538,-23.184587 21.85864,-10e-7 41.64792,8.859962 55.97254,23.184587 14.32463,14.32462 23.18459,34.1139 23.18459,55.97254 z"
       id="path815"
       inkscape:connector-curvature="0"
       sodipodi:nodetypes="sssssssss" />
    <path
       sodipodi:nodetypes="sssssssssss"
       inkscape:connector-curvature="0"
       id="use818"
       d="m 188.23808,161.53332 c 0,14.57242 -5.90664,27.76528 -15.45639,37.31502 -9.54974,9.54976 -22.7426,15.4564 -37.31502,15.4564 -7.28622,0 -14.22754,-1.47666 -20.54102,-4.14704 -6.31348,-2.67038 -11.99913,-6.53448 -16.774009,-11.30936 -4.774869,-4.77487 -8.638966,-10.46052 -11.309345,-16.77401 -2.67038,-6.31348 -4.147043,-13.2548 -4.147042,-20.54101 10e-7,-14.57243 5.906641,-27.76528 15.456388,-37.31503 9.549748,-9.54975 22.742598,-15.45639 37.315028,-15.45639 14.57242,0 27.76528,5.90664 37.31502,15.45639 9.54975,9.54975 15.45639,22.7426 15.45639,37.31503 z"
       style="opacity:1;fill:none;fill-opacity:1;fill-rule:nonzero;stroke:#000000;stroke-width:0.290501;stroke-linecap:round;stroke-linejoin:round;stroke-miterlimit:4;stroke-dasharray:none;stroke-opacity:1" />
    <path
       sodipodi:nodetypes="sssssssssss"
       inkscape:connector-curvature="0"
       id="use820"
       d="m 161.85237,161.53332 c 0,7.28621 -2.95332,13.88264 -7.72819,18.65751 -4.77487,4.77488 -11.3713,7.7282 -18.65751,7.7282 -3.64311,0 -7.11377,-0.73833 -10.27051,-2.07352 -3.15674,-1.33519 -5.99957,-3.26724 -8.387,-5.65468 -2.38744,-2.38744 -4.31949,-5.23027 -5.65468,-8.38701 -1.33519,-3.15674 -2.07352,-6.6274 -2.07352,-10.2705 0,-7.28621 2.95332,-13.88264 7.7282,-18.65751 4.77487,-4.77488 11.37129,-7.7282 18.65751,-7.7282 7.28621,0 13.88264,2.95332 18.65751,7.7282 4.77487,4.77487 7.72819,11.3713 7.72819,18.65751 z"
       style="opacity:1;fill:none;fill-opacity:1;fill-rule:nonzero;stroke:#000000;stroke-width:0.1452505;stroke-linecap:round;stroke-linejoin:round;stroke-miterlimit:4;stroke-dasharray:none;stroke-opacity:1" />
    <circle
       style="opacity:1;fill:none;fill-opacity:1;fill-rule:nonzero;stroke:#000000;stroke-width:0.26458332;stroke-linecap:round;stroke-linejoin:round;stroke-miterlimit:4;stroke-dasharray:none;stroke-opacity:1"
       id="path826"
       cx="135.46667"
       cy="161.53331"
       r="0.11085652" />
  </g>
  <g
     inkscape:groupmode="layer"
     id="layer2"
     inkscape:label="Layer 2"
     style="display:inline">
    <g
       id="g828"
       transform="translate(-2e-6,15.210442)">
      <path
         sodipodi:nodetypes="ssscccscsssscscscccscs"
         inkscape:connector-curvature="0"
         id="use829"
         d="M 85.933378,25.741032 C 72.255145,39.41927 65.416052,57.346799 65.416057,75.274315 c 3e-6,17.927459 6.839087,35.854935 20.517321,49.533185 6.83911,6.83912 14.740412,11.96832 23.173002,15.38787 l 26.03919,40.77115 26.6814,-40.77115 c 8.43257,-3.41955 16.33388,-8.54874 23.17298,-15.38787 13.67823,-13.67823 20.51736,-31.605726 20.51733,-49.533185 1e-5,-17.927503 -6.8391,-35.85505 -20.51732,-49.533283 C 171.32172,12.062798 153.39419,5.2237098 135.46666,5.2237108 117.53915,5.2236994 99.611608,12.062808 85.933378,25.741032 Z m 24.766892,24.76689 c 6.83911,-6.839118 15.80264,-10.258431 24.76639,-10.258414 8.96376,-1.3e-5 17.9273,3.4193 24.76641,10.258414 6.83912,6.839102 10.25843,15.802644 10.25843,24.766393 1e-5,8.96377 -3.41931,17.927242 -10.25843,24.766315 -3.41955,3.41955 -9.47834,6.8395 -11.58649,7.6944 L 135.45815,74.344861 122.28676,107.73503 c -2.10813,-0.85488 -8.16694,-4.27487 -11.58649,-7.6944 -6.8391,-6.839073 -10.25843,-15.802555 -10.25841,-24.766315 -2e-5,-8.963762 3.41929,-17.927277 10.25841,-24.766393 z"
         style="opacity:1;fill:#000000;fill-opacity:1;fill-rule:nonzero;stroke:#000000;stroke-width:0.38562104;stroke-linecap:round;stroke-linejoin:round;stroke-miterlimit:4;stroke-dasharray:none;stroke-opacity:1" />
      <path
         id="use949"
         style="opacity:1;fill:#000000;fill-opacity:1;fill-rule:nonzero;stroke:#333333;stroke-width:0;stroke-linecap:round;stroke-linejoin:round;stroke-miterlimit:4;stroke-dasharray:none;stroke-opacity:1"
         d="m 173.03212,208.56243 c 8.00431,0 14.44825,6.47183 14.44825,14.51084 v 12.40828 h -28.89649 v -12.40828 c 0,-8.03901 6.44391,-14.51084 14.44824,-14.51084 z m -37.56544,0 c 8.00431,0 14.44825,6.47183 14.44825,14.51084 v 12.40828 h -28.89648 v -12.40828 c 0,-8.03901 6.44391,-14.51084 14.44823,-14.51084 z m -37.565434,0 c 8.004314,0 14.448254,6.47183 14.448254,14.51084 v 12.40828 H 83.453005 v -12.40828 c 0,-8.03901 6.443912,-14.51084 14.448241,-14.51084 z m -34.22221,-15.49152 v 0.0131 A 15.0101,15.0101 0 0 0 49.031989,208.08107 15.0101,15.0101 0 0 0 64.042145,223.09122 15.0101,15.0101 0 0 0 79.0523,208.08107 15.0101,15.0101 0 0 0 78.631984,204.63031 H 192.2999 a 15.0101,15.0101 0 0 0 -0.41886,3.45076 15.0101,15.0101 0 0 0 15.01015,15.01015 15.0101,15.0101 0 0 0 15.01016,-15.01015 15.0101,15.0101 0 0 0 -14.64705,-14.99173 v -0.0184 H 206.89119 64.042144 Z"
         inkscape:connector-curvature="0" />
    </g>
  </g>
  <g
     inkscape:groupmode="layer"
     id="layer3"
     inkscape:label="Layer 3"
     style="display:none">
    <circle
       style="display:inline;opacity:0.56940008;fill:#000000;fill-opacity:1;fill-rule:nonzero;stroke:#000000;stroke-width:0.26355046;stroke-linecap:round;stroke-linejoin:round;stroke-miterlimit:4;stroke-dasharray:none;stroke-opacity:1"
       id="path899"
       cx="135.46667"
       cy="135.46667"
       r="66.014061" />
    <circle
       style="display:inline;opacity:0.56940008;fill:#000000;fill-opacity:1;fill-rule:nonzero;stroke:#000000;stroke-width:0.22035104;stroke-linecap:round;stroke-linejoin:round;stroke-miterlimit:4;stroke-dasharray:none;stroke-opacity:1"
       id="path897"
       cx="135.46667"
       cy="135.46667"
       r="13.118991" />
  </g>
  <g
     inkscape:groupmode="layer"
     id="layer4"
     inkscape:label="Layer 4"
     style="display:none"
     sodipodi:insensitive="true">
    <path
       style="fill:none;fill-rule:evenodd;stroke:#000000;stroke-width:0.26458332px;stroke-linecap:butt;stroke-linejoin:miter;stroke-opacity:1"
       d="M 74.482219,196.45111 196.45112,74.482223"
       id="path905"
       inkscape:connector-curvature="0" />
    <path
       inkscape:connector-curvature="0"
       id="use907"
       d="M 102.46212,215.14668 168.47122,55.786649"
       style="fill:none;fill-rule:evenodd;stroke:#000000;stroke-width:0.26458332px;stroke-linecap:butt;stroke-linejoin:miter;stroke-opacity:1" />
    <path
       style="fill:none;fill-rule:evenodd;stroke:#000000;stroke-width:0.26458332px;stroke-linecap:butt;stroke-linejoin:miter;stroke-opacity:1"
       d="M 55.786648,168.47121 215.14669,102.46213"
       id="use911"
       inkscape:connector-curvature="0" />
  </g>
</svg>
