<?xml version="1.0" encoding="UTF-8" standalone="no"?>
<!-- Created with Inkscape (http://www.inkscape.org/) -->

<svg
   xmlns:dc="http://purl.org/dc/elements/1.1/"
   xmlns:cc="http://creativecommons.org/ns#"
   xmlns:rdf="http://www.w3.org/1999/02/22-rdf-syntax-ns#"
   xmlns:svg="http://www.w3.org/2000/svg"
   xmlns="http://www.w3.org/2000/svg"
   xmlns:sodipodi="http://sodipodi.sourceforge.net/DTD/sodipodi-0.dtd"
   xmlns:inkscape="http://www.inkscape.org/namespaces/inkscape"
   width="1024"
   height="1024"
   viewBox="0 0 270.93333 270.93334"
   version="1.1"
   id="svg8"
   inkscape:version="0.92.2 5c3e80d, 2017-08-06"
   sodipodi:docname="qf.svg"
   inkscape:export-filename="/Users/user/qf.png"
   inkscape:export-xdpi="96"
   inkscape:export-ydpi="96">
  <defs
     id="defs2" />
  <sodipodi:namedview
     id="base"
     pagecolor="#ffffff"
     bordercolor="#666666"
     borderopacity="1.0"
     inkscape:pageopacity="0.0"
     inkscape:pageshadow="2"
     inkscape:zoom="0.7734375"
     inkscape:cx="707.66688"
     inkscape:cy="512"
     inkscape:document-units="px"
     inkscape:current-layer="layer2"
     showgrid="false"
     units="px"
     inkscape:window-width="1653"
     inkscape:window-height="1005"
     inkscape:window-x="0"
     inkscape:window-y="1"
     inkscape:window-maximized="1" />
  <metadata
     id="metadata5">
    <rdf:RDF>
      <cc:Work
         rdf:about="">
        <dc:format>image/svg+xml</dc:format>
        <dc:type
           rdf:resource="http://purl.org/dc/dcmitype/StillImage" />
        <dc:title />
      </cc:Work>
    </rdf:RDF>
  </metadata>
  <g
     inkscape:label="Layer 1"
     inkscape:groupmode="layer"
     id="layer1"
     transform="translate(0,-26.06665)"
     style="display:none">
    <path
       style="opacity:1;fill:none;fill-opacity:1;fill-rule:nonzero;stroke:#000000;stroke-width:0.4357515;stroke-linecap:round;stroke-linejoin:round;stroke-miterlimit:4;stroke-dasharray:none;stroke-opacity:1"
       d="m 214.6238,161.53331 c 0,21.85864 -8.85996,41.64792 -23.18459,55.97254 -14.32462,14.32463 -34.1139,23.18459 -55.97254,23.18459 -21.85864,0 -41.647918,-8.85996 -55.97254,-23.18459 -14.324621,-14.32462 -23.184584,-34.1139 -23.184583,-55.97254 10e-7,-21.85864 8.859963,-41.64792 23.184585,-55.97254 14.324621,-14.324622 34.113898,-23.184586 55.972538,-23.184587 21.85864,-10e-7 41.64792,8.859962 55.97254,23.184587 14.32463,14.32462 23.18459,34.1139 23.18459,55.97254 z"
       id="path815"
       inkscape:connector-curvature="0"
       sodipodi:nodetypes="sssssssss" />
    <path
       sodipodi:nodetypes="sssssssssss"
       inkscape:connector-curvature="0"
       id="use818"
       d="m 188.23808,161.53332 c 0,14.57242 -5.90664,27.76528 -15.45639,37.31502 -9.54974,9.54976 -22.7426,15.4564 -37.31502,15.4564 -7.28622,0 -14.22754,-1.47666 -20.54102,-4.14704 -6.31348,-2.67038 -11.99913,-6.53448 -16.774009,-11.30936 -4.774869,-4.77487 -8.638966,-10.46052 -11.309345,-16.77401 -2.67038,-6.31348 -4.147043,-13.2548 -4.147042,-20.54101 10e-7,-14.57243 5.906641,-27.76528 15.456388,-37.31503 9.549748,-9.54975 22.742598,-15.45639 37.315028,-15.45639 14.57242,0 27.76528,5.90664 37.31502,15.45639 9.54975,9.54975 15.45639,22.7426 15.45639,37.31503 z"
       style="opacity:1;fill:none;fill-opacity:1;fill-rule:nonzero;stroke:#000000;stroke-width:0.290501;stroke-linecap:round;stroke-linejoin:round;stroke-miterlimit:4;stroke-dasharray:none;stroke-opacity:1" />
    <path
       sodipodi:nodetypes="sssssssssss"
       inkscape:connector-curvature="0"
       id="use820"
       d="m 161.85237,161.53332 c 0,7.28621 -2.95332,13.88264 -7.72819,18.65751 -4.77487,4.77488 -11.3713,7.7282 -18.65751,7.7282 -3.64311,0 -7.11377,-0.73833 -10.27051,-2.07352 -3.15674,-1.33519 -5.99957,-3.26724 -8.387,-5.65468 -2.38744,-2.38744 -4.31949,-5.23027 -5.65468,-8.38701 -1.33519,-3.15674 -2.07352,-6.6274 -2.07352,-10.2705 0,-7.28621 2.95332,-13.88264 7.7282,-18.65751 4.77487,-4.77488 11.37129,-7.7282 18.65751,-7.7282 7.28621,0 13.88264,2.95332 18.65751,7.7282 4.77487,4.77487 7.72819,11.3713 7.72819,18.65751 z"
       style="opacity:1;fill:none;fill-opacity:1;fill-rule:nonzero;stroke:#000000;stroke-width:0.1452505;stroke-linecap:round;stroke-linejoin:round;stroke-miterlimit:4;stroke-dasharray:none;stroke-opacity:1" />
    <circle
       style="opacity:1;fill:none;fill-opacity:1;fill-rule:nonzero;stroke:#000000;stroke-width:0.26458332;stroke-linecap:round;stroke-linejoin:round;stroke-miterlimit:4;stroke-dasharray:none;stroke-opacity:1"
       id="path826"
       cx="135.46667"
       cy="161.53331"
       r="0.11085652" />
  </g>
  <g
     inkscape:groupmode="layer"
     id="layer2"
     inkscape:label="Layer 2"
     style="display:inline">
    <path
       style="opacity:1;fill:#000000;fill-opacity:1;fill-rule:nonzero;stroke:#000000;stroke-width:0.38562104;stroke-linecap:round;stroke-linejoin:round;stroke-miterlimit:4;stroke-dasharray:none;stroke-opacity:1"
       d="M 85.933376,40.951474 C 72.255143,54.629712 65.41605,72.557241 65.416055,90.484757 c 3e-6,17.927463 6.839087,35.854933 20.517321,49.533183 6.83911,6.83912 14.740414,11.96832 23.173004,15.38787 l 26.03919,40.77115 26.6814,-40.77115 c 8.43257,-3.41955 16.33388,-8.54874 23.17298,-15.38787 13.67823,-13.67823 20.51736,-31.60572 20.51733,-49.533183 1e-5,-17.927503 -6.8391,-35.85505 -20.51732,-49.533283 C 171.32172,27.27324 153.39419,20.434152 135.46666,20.434153 117.53915,20.434141 99.611606,27.27325 85.933376,40.951474 Z m 24.766894,24.76689 c 6.83911,-6.839118 15.80264,-10.258431 24.76639,-10.258414 8.96376,-1.3e-5 17.9273,3.4193 24.76641,10.258414 6.83912,6.839102 10.25843,15.802644 10.25843,24.766393 1e-5,8.96377 -3.41931,17.927243 -10.25843,24.766313 -3.41955,3.41955 -9.47834,6.8395 -11.58649,7.6944 L 135.45815,89.555303 122.28676,122.94547 c -2.10813,-0.85488 -8.16694,-4.27487 -11.58649,-7.6944 -6.8391,-6.83907 -10.25843,-15.802553 -10.25841,-24.766313 -2e-5,-8.963762 3.41929,-17.927277 10.25841,-24.766393 z"
       id="use829"
       inkscape:connector-curvature="0"
       sodipodi:nodetypes="ssscccscsssscscscccscs" />
    <g
       id="g861">
      <path
         sodipodi:nodetypes="ccccccccccccccc"
         id="use949"
         style="opacity:1;fill:#000000;fill-opacity:1;fill-rule:nonzero;stroke:#333333;stroke-width:0;stroke-linecap:round;stroke-linejoin:round;stroke-miterlimit:4;stroke-dasharray:none;stroke-opacity:1"
         d="m 63.679037,208.28135 v 0.0131 c -8.14267,0.197 -14.64236,6.85201 -14.64705,14.99706 -3e-5,8.28989 6.72026,15.01018 15.01016,15.01015 8.28989,3e-5 15.01018,-6.72026 15.01015,-15.01015 -0.006,-1.16265 -0.14704,-2.32067 -0.42032,-3.45076 H 192.2999 c -0.27279,1.13015 -0.41335,2.28817 -0.41886,3.45076 -3e-5,8.28989 6.72026,15.01018 15.01015,15.01015 8.28989,3e-5 15.01019,-6.72026 15.01016,-15.01015 -0.008,-8.14298 -6.50645,-14.79478 -14.64705,-14.99173 v -0.0184 H 206.89119 64.042137 Z"
         inkscape:connector-curvature="0" />
      <g
         transform="translate(-3.0000836)"
         id="g852">
        <circle
           inkscape:tile-y0="224.08603"
           inkscape:tile-x0="82.78519"
           r="15.213541"
           cy="239.29958"
           cx="97.998734"
           id="use837"
           style="opacity:1;fill:#000000;fill-opacity:1;fill-rule:nonzero;stroke:#ffffff;stroke-width:0;stroke-linecap:round;stroke-linejoin:round;stroke-miterlimit:4;stroke-dasharray:none;stroke-opacity:1" />
        <circle
           inkscape:tile-y0="224.08603"
           inkscape:tile-x0="82.78519"
           r="15.213541"
           cy="239.29958"
           cx="138.46675"
           id="use839"
           style="opacity:1;fill:#000000;fill-opacity:1;fill-rule:nonzero;stroke:#ffffff;stroke-width:0;stroke-linecap:round;stroke-linejoin:round;stroke-miterlimit:4;stroke-dasharray:none;stroke-opacity:1" />
        <circle
           inkscape:tile-y0="224.08603"
           inkscape:tile-x0="82.78519"
           r="15.213541"
           cy="239.29958"
           cx="178.93477"
           id="use841"
           style="opacity:1;fill:#000000;fill-opacity:1;fill-rule:nonzero;stroke:#ffffff;stroke-width:0;stroke-linecap:round;stroke-linejoin:round;stroke-miterlimit:4;stroke-dasharray:none;stroke-opacity:1" />
      </g>
    </g>
  </g>
  <g
     inkscape:groupmode="layer"
     id="layer3"
     inkscape:label="Layer 3"
     style="display:none">
    <circle
       style="display:inline;opacity:0.56940008;fill:#000000;fill-opacity:1;fill-rule:nonzero;stroke:#000000;stroke-width:0.26355046;stroke-linecap:round;stroke-linejoin:round;stroke-miterlimit:4;stroke-dasharray:none;stroke-opacity:1"
       id="path899"
       cx="135.46667"
       cy="135.46667"
       r="66.014061" />
    <circle
       style="display:inline;opacity:0.56940008;fill:#000000;fill-opacity:1;fill-rule:nonzero;stroke:#000000;stroke-width:0.22035104;stroke-linecap:round;stroke-linejoin:round;stroke-miterlimit:4;stroke-dasharray:none;stroke-opacity:1"
       id="path897"
       cx="135.46667"
       cy="135.46667"
       r="13.118991" />
  </g>
  <g
     inkscape:groupmode="layer"
     id="layer4"
     inkscape:label="Layer 4"
     style="display:none"
     sodipodi:insensitive="true">
    <path
       style="fill:none;fill-rule:evenodd;stroke:#000000;stroke-width:0.26458332px;stroke-linecap:butt;stroke-linejoin:miter;stroke-opacity:1"
       d="M 74.482219,196.45111 196.45112,74.482223"
       id="path905"
       inkscape:connector-curvature="0" />
    <path
       inkscape:connector-curvature="0"
       id="use907"
       d="M 102.46212,215.14668 168.47122,55.786649"
       style="fill:none;fill-rule:evenodd;stroke:#000000;stroke-width:0.26458332px;stroke-linecap:butt;stroke-linejoin:miter;stroke-opacity:1" />
    <path
       style="fill:none;fill-rule:evenodd;stroke:#000000;stroke-width:0.26458332px;stroke-linecap:butt;stroke-linejoin:miter;stroke-opacity:1"
       d="M 55.786648,168.47121 215.14669,102.46213"
       id="use911"
       inkscape:connector-curvature="0" />
  </g>
</svg>
