<?xml version="1.0" encoding="UTF-8" standalone="no"?>
<!-- Created with Inkscape (http://www.inkscape.org/) -->

<svg
   xmlns:dc="http://purl.org/dc/elements/1.1/"
   xmlns:cc="http://creativecommons.org/ns#"
   xmlns:rdf="http://www.w3.org/1999/02/22-rdf-syntax-ns#"
   xmlns:svg="http://www.w3.org/2000/svg"
   xmlns="http://www.w3.org/2000/svg"
   xmlns:sodipodi="http://sodipodi.sourceforge.net/DTD/sodipodi-0.dtd"
   xmlns:inkscape="http://www.inkscape.org/namespaces/inkscape"
   width="1122.5197"
   height="793.70081"
   viewBox="0 0 297 210"
   version="1.1"
   id="svg901"
   inkscape:version="0.92.2 5c3e80d, 2017-08-06"
   sodipodi:docname="quo5.svg"
   inkscape:export-filename="/Users/user/Documents/quo51.png"
   inkscape:export-xdpi="96"
   inkscape:export-ydpi="96">
  <defs
     id="defs895" />
  <sodipodi:namedview
     id="base"
     pagecolor="#ffffff"
     bordercolor="#666666"
     borderopacity="1.0"
     inkscape:pageopacity="0.0"
     inkscape:pageshadow="2"
     inkscape:zoom="0.94163159"
     inkscape:cx="-187.38917"
     inkscape:cy="396.8504"
     inkscape:document-units="px"
     inkscape:current-layer="layer1"
     showgrid="false"
     inkscape:window-width="1654"
     inkscape:window-height="1005"
     inkscape:window-x="0"
     inkscape:window-y="1"
     inkscape:window-maximized="1"
     units="px" />
  <metadata
     id="metadata898">
    <rdf:RDF>
      <cc:Work
         rdf:about="">
        <dc:format>image/svg+xml</dc:format>
        <dc:type
           rdf:resource="http://purl.org/dc/dcmitype/StillImage" />
        <dc:title></dc:title>
      </cc:Work>
    </rdf:RDF>
  </metadata>
  <g
     inkscape:label="Layer 1"
     inkscape:groupmode="layer"
     id="layer1"
     transform="translate(0,-87)">
    <g
       aria-label="QUODUM"
       style="font-style:normal;font-variant:normal;font-weight:normal;font-stretch:normal;font-size:7.9375px;line-height:125%;font-family:Centaur;-inkscape-font-specification:Centaur;letter-spacing:0px;word-spacing:0px;fill:#000000;fill-opacity:1;stroke:none;stroke-width:0.26458332px;stroke-linecap:butt;stroke-linejoin:miter;stroke-opacity:1"
       id="text824">
      <path
         d="m 82.961256,172.52802 0.206706,0.41341 q -1.033528,0.49954 -2.256537,0.6718 -1.223009,0.17225 -2.032607,0.17225 -5.477702,0 -10.593669,-4.32359 -1.739773,-0.0345 -2.721625,-0.20671 -0.981852,-0.15503 -2.359891,-0.72347 -2.256537,-0.98185 -3.789605,-2.73885 -1.515842,-1.757 -2.290988,-3.84128 -0.757921,-2.10151 -0.757921,-4.09967 0,-2.98 1.619195,-5.64995 1.619195,-2.66995 4.358046,-4.23747 2.756076,-1.58474 5.942789,-1.58474 2.067058,0 4.11689,0.82682 2.067057,0.8096 3.686252,2.30821 1.619195,1.48139 2.583822,3.63458 0.981852,2.13596 0.981852,4.70255 0,2.41157 -0.964627,4.59921 -0.947401,2.17041 -2.7044,3.8585 -0.844048,0.82683 -1.688097,1.30914 -0.844048,0.48231 -2.273763,1.10243 5.701633,3.97909 9.491238,3.97909 0.551216,0 1.44694,-0.17226 z M 58.931715,156.61168 q 0,2.29099 0.809597,4.37527 0.809598,2.08428 2.256538,3.73793 1.44694,1.65365 3.307292,2.58382 1.860351,0.91295 3.858507,0.91295 1.946479,0 3.737928,-0.98185 1.808676,-0.98185 2.962783,-2.99723 1.171332,-2.03261 1.171332,-5.01262 0,-2.42879 -0.775146,-4.54752 -0.775147,-2.13596 -2.13596,-3.72071 -1.360812,-1.58474 -3.152262,-2.48047 -1.79145,-0.89572 -3.77238,-0.89572 -2.17041,0 -4.065213,1.08521 -1.894802,1.06797 -3.048909,3.13503 -1.154107,2.06706 -1.154107,4.80591 z"
         style="font-style:normal;font-variant:normal;font-weight:normal;font-stretch:normal;font-size:35.27777863px;font-family:Centaur;-inkscape-font-specification:Centaur;letter-spacing:5.51391649px;stroke-width:0.26458332px"
         id="path1524"
         inkscape:connector-curvature="0" />
      <path
         d="m 86.838752,147.58553 0.0689,-0.63734 q 0.809598,0.0344 2.463244,0.0344 2.928331,0 5.753309,-0.13781 l 0.18948,0.56845 q -1.601969,0.18948 -2.17041,0.46508 -0.551215,0.27561 -0.809597,0.75792 -0.516765,0.96463 -0.516765,8.07875 0,2.44602 0.0689,4.30637 0.0689,1.86035 0.275608,2.89388 0.568441,2.60105 2.773302,3.46232 2.204861,0.84405 4.116889,0.84405 1.085208,0 2.601048,-0.31006 1.51585,-0.31005 2.87666,-1.11965 1.36081,-0.8096 1.8259,-2.20486 0.9474,-2.75608 0.9474,-10.83483 0,-2.41157 -0.15503,-3.61735 -0.1378,-1.22301 -0.46509,-1.757 -0.32728,-0.55121 -0.82682,-0.67179 -0.49954,-0.12058 -1.58474,-0.12058 l -0.0689,-0.60289 q 0.77515,-0.10335 1.72255,-0.10335 3.70348,0 4.97816,0.0344 v 0.70624 q -1.18855,0.0517 -1.63642,0.25838 -0.43063,0.20671 -0.53399,0.7407 -0.0861,0.53399 -0.12057,2.27376 -0.0517,3.25562 -0.15503,5.78776 -0.10336,2.51492 -0.25839,4.15134 -0.15502,1.6192 -0.44786,2.89388 -0.27561,1.27469 -0.68902,2.06706 -0.79237,1.46417 -2.46324,2.27376 -1.67087,0.8096 -3.37619,1.05076 -1.70533,0.25838 -3.100594,0.25838 -2.325439,0 -4.289144,-0.68902 -1.963704,-0.70624 -3.221164,-2.32544 -1.240234,-1.61919 -1.240234,-4.16856 0,-0.62012 0.03445,-3.39342 0.05168,-2.77331 0.05168,-4.13412 0,-4.77146 -0.465088,-6.33897 -0.120578,-0.39619 -0.413411,-0.48232 -0.275608,-0.10335 -1.739774,-0.25838 z"
         style="font-style:normal;font-variant:normal;font-weight:normal;font-stretch:normal;font-size:35.27777863px;font-family:Centaur;-inkscape-font-specification:Centaur;letter-spacing:5.51391649px;stroke-width:0.26458332px"
         id="path1526"
         inkscape:connector-curvature="0" />
      <path
         d="m 118.44927,157.92082 q 0,-3.13504 1.65364,-5.78776 1.67087,-2.65273 4.42695,-4.20302 2.75608,-1.55029 5.83944,-1.55029 2.10151,0 4.15134,0.82682 2.04983,0.82682 3.66902,2.32544 1.6192,1.48139 2.58383,3.63457 0.96462,2.15319 0.96462,4.68533 0,3.08337 -1.53306,5.77054 -1.53307,2.66995 -4.27192,4.25469 -2.72163,1.58475 -6.16672,1.58475 -2.6355,0 -4.75424,-1.03353 -2.11873,-1.03353 -3.61735,-2.79053 -1.48139,-1.757 -2.22208,-3.75515 -0.72347,-2.01538 -0.72347,-3.96186 z m 2.56659,-1.30914 q 0,3.01446 1.41249,5.70163 1.41249,2.68718 3.78961,4.30637 2.37711,1.60197 5.02984,1.60197 1.9637,0 3.75515,-0.96462 1.80868,-0.98186 2.96278,-3.01446 1.15411,-2.03261 1.15411,-5.01262 0,-2.37711 -0.77515,-4.51307 -0.75792,-2.13596 -2.13596,-3.73793 -1.36081,-1.6192 -3.15226,-2.4977 -1.79145,-0.89572 -3.77238,-0.89572 -2.17041,0 -4.06521,1.08521 -1.8948,1.06797 -3.04891,3.13503 -1.15411,2.06706 -1.15411,4.80591 z"
         style="font-style:normal;font-variant:normal;font-weight:normal;font-stretch:normal;font-size:35.27777863px;font-family:Centaur;-inkscape-font-specification:Centaur;letter-spacing:5.51391649px;stroke-width:0.26458332px"
         id="path1528"
         inkscape:connector-curvature="0" />
      <path
         d="m 149.50857,147.68888 -0.0344,-0.63734 q 4.61643,0 7.76869,-0.37896 1.17133,-0.15503 2.42879,-0.15503 2.5666,0 4.90926,0.77515 2.34267,0.75792 4.16857,2.20486 1.8259,1.44694 2.85943,3.53122 1.05075,2.06706 1.05075,4.65088 0,3.13504 -1.61919,5.71886 -1.60197,2.58382 -4.59921,4.08244 -2.98,1.48139 -6.80406,1.48139 -0.22393,0 -1.36081,-0.0344 -1.13688,-0.0344 -1.32636,-0.0344 -0.6718,0 -1.20579,0.0172 -0.51676,0 -1.53307,0.0172 -0.99907,0.0172 -1.92925,0.0517 -0.91295,0.0172 -1.25746,0.0172 l -1.6881,-0.0345 v -0.63734 q 1.84313,0 2.22209,-0.8096 0.43064,-0.9474 0.43064,-8.57829 0,-5.06429 -0.12058,-7.54476 -0.12058,-2.49769 -0.48231,-3.10059 -0.44787,-0.65456 -1.87758,-0.60289 z m 20.15381,10.02523 q 0,-3.27284 -1.55029,-5.6155 -1.5503,-2.3599 -3.96186,-3.56568 -2.41157,-1.20578 -4.94372,-1.20578 -2.48047,0 -4.47862,0.89572 -0.17226,0.96463 -0.25838,5.75331 -0.0861,4.78869 -0.0861,8.25101 0,0.1378 0.0172,1.29191 0.0345,1.1541 0.0517,2.34266 0.0344,1.17133 0.0344,1.34359 1.73978,0.55121 2.66995,0.77515 0.93018,0.2067 2.34267,0.2067 3.56567,0 5.83943,-1.53307 2.29099,-1.55029 3.30729,-3.94463 1.01631,-2.39434 1.01631,-4.99539 z"
         style="font-style:normal;font-variant:normal;font-weight:normal;font-stretch:normal;font-size:35.27777863px;font-family:Centaur;-inkscape-font-specification:Centaur;letter-spacing:5.51391649px;stroke-width:0.26458332px"
         id="path1530"
         inkscape:connector-curvature="0" />
      <path
         d="m 180.24058,147.58553 0.0689,-0.63734 q 0.80959,0.0344 2.46324,0.0344 2.92833,0 5.75331,-0.13781 l 0.18948,0.56845 q -1.60197,0.18948 -2.17041,0.46508 -0.55122,0.27561 -0.8096,0.75792 -0.51676,0.96463 -0.51676,8.07875 0,2.44602 0.0689,4.30637 0.0689,1.86035 0.27561,2.89388 0.56844,2.60105 2.7733,3.46232 2.20486,0.84405 4.11689,0.84405 1.0852,0 2.60105,-0.31006 1.51584,-0.31005 2.87665,-1.11965 1.36081,-0.8096 1.8259,-2.20486 0.9474,-2.75608 0.9474,-10.83483 0,-2.41157 -0.15503,-3.61735 -0.1378,-1.22301 -0.46508,-1.757 -0.32729,-0.55121 -0.82683,-0.67179 -0.49954,-0.12058 -1.58474,-0.12058 l -0.0689,-0.60289 q 0.77514,-0.10335 1.72254,-0.10335 3.70348,0 4.97817,0.0344 v 0.70624 q -1.18856,0.0517 -1.63642,0.25838 -0.43064,0.20671 -0.53399,0.7407 -0.0861,0.53399 -0.12058,2.27376 -0.0517,3.25562 -0.15503,5.78776 -0.10335,2.51492 -0.25838,4.15134 -0.15503,1.6192 -0.44786,2.89388 -0.27561,1.27469 -0.68902,2.06706 -0.79238,1.46417 -2.46325,2.27376 -1.67087,0.8096 -3.37619,1.05076 -1.70532,0.25838 -3.10059,0.25838 -2.32544,0 -4.28914,-0.68902 -1.96371,-0.70624 -3.22117,-2.32544 -1.24023,-1.61919 -1.24023,-4.16856 0,-0.62012 0.0344,-3.39342 0.0517,-2.77331 0.0517,-4.13412 0,-4.77146 -0.46509,-6.33897 -0.12058,-0.39619 -0.41341,-0.48232 -0.27561,-0.10335 -1.73978,-0.25838 z"
         style="font-style:normal;font-variant:normal;font-weight:normal;font-stretch:normal;font-size:35.27777863px;font-family:Centaur;-inkscape-font-specification:Centaur;letter-spacing:5.51391649px;stroke-width:0.26458332px"
         id="path1532"
         inkscape:connector-curvature="0" />
      <path
         d="m 211.11041,147.32715 0.0689,-0.65457 q 0.32729,0 0.63735,0.0344 0.31006,0.0172 1.0852,0.0344 0.89573,0.0689 1.67087,0.12058 0.77515,0.0517 1.58475,0.0517 0.32728,-0.0172 0.62011,-0.0172 0.29284,-0.0172 0.86128,-0.0172 0.56844,1.53306 1.0163,2.58382 0.46509,1.05075 1.8259,3.68625 1.36081,2.61827 2.61827,4.99539 1.27469,2.35989 3.18672,5.94279 0.77514,-1.29191 2.53214,-4.68533 0.32729,-0.62012 2.39434,-4.51308 2.08429,-3.89296 2.92834,-5.49492 0.84404,-1.60197 1.27468,-2.54938 1.34359,0.0345 2.92833,0.0345 1.30914,0 2.08429,-0.0345 l -0.0345,0.63735 q -1.32636,0.15503 -1.87757,0.36173 -0.55122,0.18948 -0.84405,0.68902 -0.29283,0.49954 -0.37896,1.44694 -0.0689,0.9474 -0.0344,3.32452 l 0.10335,4.78868 q 0.0172,0.41341 0.0172,0.82682 0.0172,0.39619 0.0345,0.99908 0.0344,0.58567 0.0689,1.53307 0.0344,0.93018 0.0861,2.32544 0.0861,1.61919 0.18948,2.42879 0.12057,0.8096 0.44786,1.27469 0.32728,0.44786 0.84405,0.60289 0.51676,0.1378 1.58474,0.17225 v 0.63735 l -2.96278,-0.0344 -2.29099,0.0344 q -1.8948,0 -3.27284,0.17225 l -0.0344,-0.63734 q 1.44694,-0.34451 2.06706,-0.7407 0.62011,-0.41341 0.89572,-1.42971 0.27561,-1.03353 0.27561,-3.08336 0,-1.30914 -0.0344,-2.11874 l -0.13781,-4.65088 q -0.10335,-2.99723 -0.46508,-5.51215 -0.51677,0.99908 -1.60197,2.99723 -1.06798,1.99816 -1.98093,3.70348 -0.89573,1.70533 -1.73978,3.32452 -0.84405,1.61919 -1.37803,2.75608 -1.10244,2.41156 -1.46417,3.25561 -0.34451,0.84405 -0.68902,1.92926 l -0.53399,0.0344 q -0.43064,-1.36082 -1.03353,-2.98001 -0.60289,-1.6192 -1.70532,-3.7207 -2.22209,-4.23747 -5.94279,-11.40327 -0.29283,2.92833 -0.56844,6.83851 -0.27561,3.91019 -0.27561,8.26823 0,1.34359 0.55122,1.87758 0.56844,0.53399 2.63549,0.75792 l -0.0345,0.56844 q -1.13688,-0.1378 -2.44601,-0.1378 l -2.08429,0.0345 q -0.36173,0 -0.67179,0.0172 -0.29283,0 -0.86127,0.0172 -0.56845,0.0172 -1.11966,0.0344 -0.55122,0.0345 -0.79237,0.0345 l 0.0344,-0.49954 q 1.65364,-0.29283 2.34266,-0.84405 0.68902,-0.56844 0.89573,-1.61919 0.2067,-1.05075 0.39618,-3.77238 l 0.51677,-8.9917 q 0.0861,-1.24023 0.0861,-1.67087 0,-1.757 -0.46509,-2.66995 -0.44786,-0.91295 -1.30914,-1.24023 -0.84405,-0.34451 -2.32544,-0.46509 z"
         style="font-style:normal;font-variant:normal;font-weight:normal;font-stretch:normal;font-size:35.27777863px;font-family:Centaur;-inkscape-font-specification:Centaur;letter-spacing:5.51391649px;stroke-width:0.26458332px"
         id="path1534"
         inkscape:connector-curvature="0" />
    </g>
    <path
       id="use949"
       style="opacity:1;fill:#b3b3b3;fill-opacity:1;fill-rule:nonzero;stroke:#000000;stroke-width:0;stroke-linecap:round;stroke-linejoin:round;stroke-miterlimit:4;stroke-dasharray:none;stroke-opacity:1"
       d="m 188.54283,196.19122 c 8.53218,0 15.40109,6.89864 15.40109,15.46782 v 13.22659 h -30.80218 v -13.22659 c 0,-8.56918 6.86888,-15.46782 15.40109,-15.46782 z m -40.04284,0 c 8.53218,0 15.40109,6.89864 15.40109,15.46782 v 13.22659 h -30.80217 v -13.22659 c 0,-8.56918 6.86888,-15.46782 15.40108,-15.46782 z m -40.04283,0 c 8.53218,0 15.40109,6.89864 15.40109,15.46782 v 13.22659 H 93.056076 v -13.22659 c 0,-8.56918 6.86888,-15.46782 15.401084,-15.46782 z M 71.978035,179.67806 v 0.014 a 15.999999,15.999999 0 0 0 -15.613002,15.9861 15.999999,15.999999 0 0 0 16.000058,16.00006 15.999999,15.999999 0 0 0 16.000058,-16.00006 15.999999,15.999999 0 0 0 -0.448035,-3.67833 H 209.08129 a 15.999999,15.999999 0 0 0 -0.44648,3.67833 15.999999,15.999999 0 0 0 16.00005,16.00006 15.999999,15.999999 0 0 0 16.00006,-16.00006 15.999999,15.999999 0 0 0 -15.613,-15.98042 v -0.0196 H 224.63486 72.365091 Z"
       inkscape:connector-curvature="0" />
  </g>
  <g
     inkscape:groupmode="layer"
     id="layer2"
     inkscape:label="Layer 2"
     style="display:none">
    <path
       transform="translate(0,-87.000001)"
       id="use910"
       style="opacity:1;fill:#000000;fill-opacity:1;fill-rule:nonzero;stroke:#000000;stroke-width:0;stroke-linecap:round;stroke-linejoin:round;stroke-miterlimit:4;stroke-dasharray:none;stroke-opacity:1"
       d="m 87.095072,261.66047 c 4.431994,0 8,3.58346 8,8.03467 V 288.388 H 79.095071 v -18.69286 c 0,-4.45121 3.567998,-8.03467 8.000001,-8.03467 z m 20.000008,0 c 4.43199,0 8,3.58346 8,8.03467 V 288.388 H 99.09507 v -18.69286 c 0,-4.45121 3.568,-8.03467 8.00001,-8.03467 z m 20,0 c 4.43199,0 8,3.58346 8,8.03467 V 288.388 h -16 v -18.69286 c 0,-4.45121 3.568,-8.03467 8,-8.03467 z m 20,0 c 4.432,0 8,3.58346 8,8.03467 V 288.388 h -16 v -18.69286 c 0,-4.45121 3.568,-8.03467 8,-8.03467 z m 20,0 c 4.432,0 8,3.58346 8,8.03467 V 288.388 h -16 v -18.69286 c 0,-4.45121 3.568,-8.03467 8,-8.03467 z m 20.00001,0 c 4.432,0 8,3.58346 8,8.03467 V 288.388 h -16 v -18.69286 c 0,-4.45121 3.568,-8.03467 8,-8.03467 z m 20,0 c 4.432,0 8,3.58346 8,8.03467 V 288.388 h -16 v -18.69286 c 0,-4.45121 3.568,-8.03467 8,-8.03467 z"
       inkscape:connector-curvature="0" />
  </g>
</svg>
